<?xml version="1.0" encoding="UTF-8" standalone="no"?>
<!DOCTYPE svg PUBLIC "-//W3C//DTD SVG 1.1//EN" "http://www.w3.org/Graphics/SVG/1.1/DTD/svg11.dtd">
<svg xmlns="http://www.w3.org/2000/svg" version="1.1" viewBox="0.00 0.00 312.00 310.00">
<g stroke-width="2.00" fill="none" stroke-linecap="butt">
<path stroke="#24292b" vector-effect="non-scaling-stroke" d="
  M 82.58 273.15
  Q 83.22 274.34 84.20 274.83
  Q 85.55 275.49 85.67 275.57
  C 87.62 276.86 89.79 277.32 91.80 278.44
  Q 96.75 281.19 102.00 282.79
  C 103.93 283.38 105.57 284.33 107.46 284.94
  Q 118.92 288.65 132.39 291.08
  Q 142.66 292.93 153.94 292.87
  C 158.02 292.85 161.61 291.72 165.55 291.37
  Q 174.21 290.58 182.05 289.80
  Q 185.48 289.45 188.91 288.52
  C 195.54 286.71 202.46 285.20 208.63 282.38
  Q 214.73 279.59 220.67 277.33
  C 222.27 276.72 223.44 275.72 224.94 274.92
  Q 235.36 269.41 245.13 261.94
  Q 245.99 261.29 247.28 259.92
  Q 248.36 258.77 249.50 257.96"
/>
<path stroke="#91908d" vector-effect="non-scaling-stroke" d="
  M 249.50 257.96
  Q 260.30 248.88 264.61 242.61
  C 270.41 234.18 276.38 225.78 280.86 216.77
  Q 284.64 209.17 286.67 202.76
  Q 288.88 195.74 290.77 188.22
  C 295.47 169.45 295.54 149.16 291.92 130.29
  C 290.87 124.82 289.24 119.92 287.96 114.71
  C 285.60 105.10 281.40 96.41 276.55 87.79
  C 273.50 82.36 269.50 77.52 266.12 72.27
  C 263.32 67.91 259.14 63.27 255.30 59.83
  C 249.98 55.05 244.77 50.04 239.05 45.69
  C 233.10 41.17 226.84 37.57 220.28 34.06
  C 212.55 29.93 203.59 26.05 195.11 23.52
  Q 151.69 10.60 109.04 26.38
  Q 102.95 28.64 94.94 32.69
  Q 84.90 37.78 81.55 40.04
  Q 57.59 56.19 41.13 79.77
  Q 38.99 82.84 37.37 85.98
  C 34.55 91.49 31.55 96.72 29.13 102.50
  C 14.69 136.92 14.11 176.24 29.28 210.64
  C 35.75 225.31 43.75 238.43 54.21 249.23
  C 61.17 256.42 67.65 262.97 76.28 268.52
  C 78.39 269.88 80.37 271.67 82.58 273.15"
/>
<path stroke="#8f8e8a" vector-effect="non-scaling-stroke" d="
  M 249.50 257.96
  C 244.61 251.94 238.80 245.92 234.78 240.13
  Q 229.08 231.92 225.81 224.74
  Q 221.79 215.91 215.04 196.25
  Q 213.92 192.98 211.81 191.20
  Q 211.17 190.66 212.00 190.57
  C 218.34 189.84 225.95 186.07 229.41 180.40
  Q 233.15 174.27 233.76 167.49
  A 2.05 2.03 73.3 0 1 234.51 166.09
  Q 243.11 159.12 245.28 147.77
  Q 247.10 138.23 246.17 127.54
  C 245.30 117.67 241.74 109.90 235.99 102.19
  Q 235.73 101.84 235.72 101.41
  Q 235.41 89.02 230.29 79.35
  C 226.64 72.45 222.07 64.88 215.73 60.19
  Q 211.96 57.40 207.43 54.49
  C 197.51 48.13 185.90 45.56 173.95 46.29
  Q 173.26 46.34 172.69 45.95
  C 165.88 41.35 159.63 38.79 151.49 38.35
  C 138.28 37.63 126.53 39.07 115.84 47.05
  C 106.23 54.23 100.73 65.19 104.61 77.32
  Q 104.82 77.95 104.33 78.41
  Q 101.69 80.88 100.29 83.81
  Q 96.49 91.80 95.25 99.33
  Q 94.93 101.32 93.94 103.14
  C 90.49 109.48 88.25 115.68 92.66 121.63
  C 93.76 123.12 93.69 125.12 92.71 126.62
  Q 87.72 134.19 81.18 142.64
  Q 80.31 143.76 79.72 144.96
  C 78.72 146.97 77.17 148.65 76.65 150.80
  C 75.73 154.62 78.75 158.03 82.56 158.85
  Q 84.56 159.28 86.39 160.33
  A 1.40 1.39 -55.1 0 1 86.76 162.45
  Q 81.69 168.41 84.98 175.40
  C 86.17 177.93 89.17 178.99 89.75 181.87
  Q 90.38 185.03 88.35 187.55
  C 85.41 191.20 81.71 194.28 79.28 198.33
  C 76.43 203.07 74.29 207.09 73.45 212.80
  Q 71.80 224.11 76.92 231.56
  Q 80.69 237.04 85.61 238.85
  C 96.21 242.74 108.26 239.69 118.55 235.16
  Q 120.94 234.11 119.16 236.01
  Q 112.67 242.97 106.90 248.18
  Q 103.57 251.18 97.49 258.24
  Q 92.48 264.06 82.58 273.15"
/>
<path stroke="#91908d" vector-effect="non-scaling-stroke" d="
  M 45.64 148.20
  Q 38.78 157.75 37.01 169.69
  Q 36.93 170.22 37.47 170.23
  L 42.58 170.31
  Q 43.08 170.31 43.19 169.82
  Q 46.55 154.50 56.56 142.01
  Q 57.07 141.39 56.26 141.38
  L 33.23 141.28
  Q 33.00 141.28 32.99 141.52
  L 32.95 147.05
  Q 32.95 147.20 33.10 147.20
  L 45.28 147.46
  Q 46.16 147.48 45.64 148.20"
/>
<path stroke="#91908d" vector-effect="non-scaling-stroke" d="
  M 269.70 164.50
  L 269.70 169.96
  Q 269.70 170.22 269.96 170.22
  L 275.56 170.21
  Q 275.83 170.21 275.83 169.94
  L 275.98 164.28
  Q 275.99 163.52 276.74 163.68
  Q 277.45 163.83 278.14 163.63
  Q 278.69 163.48 278.71 162.90
  L 278.87 159.40
  Q 278.90 158.65 278.15 158.69
  L 276.62 158.77
  Q 275.94 158.81 275.93 158.12
  L 275.78 142.04
  Q 275.77 141.30 275.04 141.32
  L 269.56 141.48
  A 2.13 2.11 17.3 0 0 267.92 142.33
  Q 261.59 150.82 254.29 159.14
  Q 253.96 159.51 254.01 160.01
  L 254.31 163.00
  Q 254.37 163.63 255.01 163.64
  L 268.99 163.78
  Q 269.70 163.79 269.70 164.50"
/>
<path stroke="#8f8e8a" vector-effect="non-scaling-stroke" d="
  M 194.21 75.10
  Q 200.78 81.29 210.09 84.91
  Q 210.79 85.19 210.25 84.66
  C 208.12 82.56 205.64 80.79 203.64 78.52
  Q 196.37 70.23 186.06 63.04
  Q 182.22 60.36 177.95 58.51
  C 167.34 53.91 158.09 50.73 146.12 52.15
  Q 134.95 53.48 126.27 62.17
  Q 125.06 63.38 126.67 62.79
  C 138.04 58.57 146.60 65.74 150.64 75.81
  Q 154.62 85.74 161.46 91.85
  Q 162.28 92.58 161.23 92.27
  Q 152.12 89.62 148.33 81.90
  Q 147.83 80.88 148.08 81.99
  Q 150.30 92.06 156.00 98.29
  Q 158.28 100.77 155.19 99.42
  Q 149.17 96.77 147.31 89.89
  Q 147.29 89.83 147.23 89.85
  L 146.98 89.91
  Q 146.77 89.97 146.81 90.18
  Q 150.21 108.21 166.40 116.31
  Q 167.73 116.97 166.24 116.98
  Q 162.20 117.01 158.40 113.98
  Q 157.80 113.50 158.07 114.22
  C 161.01 122.09 168.32 128.53 176.09 132.22
  Q 177.87 133.06 179.55 133.90
  Q 180.53 134.39 179.44 134.40
  Q 169.50 134.48 161.89 127.52
  Q 160.74 126.47 159.58 125.47
  Q 158.33 124.39 159.23 125.78
  C 161.07 128.60 162.91 131.87 165.27 134.13
  C 169.93 138.59 176.07 142.16 182.77 142.64
  C 191.20 143.24 200.08 143.01 206.84 137.78
  A 0.19 0.18 -58.8 0 0 206.76 137.45
  Q 195.07 135.43 186.49 129.35
  C 183.90 127.52 181.91 124.99 179.69 122.67
  C 176.44 119.30 173.73 114.49 172.60 110.06
  Q 172.10 108.13 173.43 109.62
  C 179.50 116.49 187.86 119.26 196.76 120.36
  Q 196.89 120.38 196.92 120.25
  L 196.92 120.24
  Q 196.95 120.09 196.81 120.05
  C 190.24 118.13 185.45 114.39 181.87 108.42
  C 179.97 105.25 176.66 100.00 176.39 96.39
  Q 176.26 94.70 177.18 96.13
  C 177.94 97.31 178.49 98.80 179.48 99.79
  C 182.24 102.51 184.30 105.55 187.35 107.99
  C 197.41 116.05 210.88 118.91 223.10 115.11
  Q 225.81 114.26 222.98 114.17
  Q 210.20 113.78 200.07 106.96
  C 194.94 103.51 189.91 99.33 186.46 94.09
  C 183.14 89.04 181.28 81.58 181.01 75.61
  Q 180.86 72.06 182.22 75.34
  C 183.01 77.24 183.34 79.41 184.46 81.17
  Q 190.84 91.12 200.17 97.16
  C 206.37 101.17 214.53 102.76 221.87 104.54
  Q 223.92 105.04 222.02 104.12
  C 218.29 102.32 214.34 100.56 211.05 98.03
  Q 208.42 95.99 206.26 93.57
  Q 200.05 86.61 195.33 78.58
  Q 194.41 77.01 193.84 75.33
  Q 193.56 74.49 194.21 75.10"
/>
<path stroke="#8f8e8a" vector-effect="non-scaling-stroke" d="
  M 110.93 158.02
  C 121.93 162.38 133.67 155.65 140.26 146.82
  Q 143.73 142.16 146.20 136.21
  A 1.02 1.01 -57.1 0 0 145.96 135.08
  Q 143.21 132.52 141.43 128.85
  Q 136.48 118.64 137.88 106.27
  C 138.71 99.01 141.09 90.53 139.88 83.27
  Q 138.14 72.84 128.91 71.50
  C 121.56 70.44 115.14 73.94 109.90 79.00
  C 104.03 84.65 100.92 92.09 99.77 100.20
  C 98.90 106.34 94.09 110.20 95.82 116.99
  Q 95.97 117.57 96.56 117.45
  Q 104.15 115.92 111.36 119.08
  C 114.53 120.47 118.00 121.90 120.57 124.26
  Q 124.04 127.45 127.56 130.58
  Q 128.33 131.27 127.61 132.01
  Q 126.01 133.65 124.13 134.36
  A 1.42 1.38 47.9 0 1 122.99 134.29
  C 118.62 132.04 115.17 130.02 110.36 133.13
  A 0.67 0.66 52.6 0 0 110.23 134.13
  Q 112.64 136.87 116.27 137.27
  Q 116.45 137.29 116.57 137.42
  Q 116.68 137.54 116.67 137.70
  Q 116.65 138.15 116.21 138.26
  Q 111.06 139.48 105.71 138.89
  Q 105.01 138.81 105.29 139.46
  Q 105.82 140.74 105.80 142.21
  Q 105.79 142.81 105.25 142.55
  C 101.23 140.64 98.17 135.92 95.89 132.21
  Q 95.41 131.43 94.88 132.18
  Q 89.94 139.15 85.25 145.38
  Q 83.81 147.29 82.50 149.32
  C 80.93 151.72 82.84 154.19 85.51 153.19
  Q 89.36 151.75 93.18 153.79
  A 1.27 1.26 -76.8 0 0 95.04 152.63
  Q 94.99 150.96 93.70 149.85
  Q 92.78 149.05 93.99 149.24
  C 100.09 150.21 103.56 155.96 98.84 161.08
  Q 98.32 161.64 99.00 161.97
  C 101.27 163.07 103.56 164.04 105.43 165.79
  Q 111.44 171.41 114.09 178.78
  Q 114.28 179.32 114.80 179.11
  Q 119.03 177.44 122.95 174.52
  Q 123.41 174.18 123.01 173.76
  Q 118.04 168.61 113.11 162.60
  Q 111.59 160.75 110.40 158.62
  Q 109.82 157.58 110.93 158.02"
/>
<path stroke="#8f8e8a" vector-effect="non-scaling-stroke" d="
  M 198.32 195.87
  Q 198.59 195.75 198.46 195.48
  L 196.58 191.40
  A 0.54 0.53 -18.6 0 0 195.98 191.11
  C 187.59 192.92 180.15 196.31 172.60 200.20
  Q 156.98 208.23 144.69 221.30
  C 137.20 229.26 131.57 238.85 126.59 248.73
  A 0.07 0.07 0.0 0 0 126.69 248.81
  Q 135.08 241.98 143.18 233.95
  Q 147.27 229.90 155.60 223.69
  Q 160.27 220.22 165.28 216.15
  C 172.10 210.61 180.27 205.68 188.18 201.06
  Q 192.89 198.31 198.32 195.87"
/>
<path stroke="#91908d" vector-effect="non-scaling-stroke" d="
  M 262.70 158.06
  A 0.31 0.31 0.0 0 0 262.95 158.56
  L 269.17 158.54
  A 0.31 0.31 0.0 0 0 269.48 158.23
  L 269.53 149.97
  A 0.31 0.31 0.0 0 0 268.98 149.78
  L 262.70 158.06"
/>
</g>
<path fill="#262b2e" d="
  M 166.72 310.00
  L 145.95 310.00
  Q 121.08 308.75 100.07 300.39
  Q 89.11 296.03 74.58 287.44
  Q 65.97 282.36 58.17 275.95
  Q 48.16 267.73 42.17 261.25
  Q 38.55 257.34 31.47 248.08
  C 22.21 235.94 16.01 223.51 10.39 208.74
  Q 5.54 196.02 3.73 185.08
  C 3.55 184.01 2.93 183.24 2.99 182.12
  Q 3.09 179.91 2.45 177.69
  Q 1.97 176.04 1.96 174.43
  C 1.95 172.46 2.13 168.48 1.22 166.69
  Q 0.99 166.23 0.99 165.72
  Q 1.02 156.40 0.97 147.43
  Q 0.96 145.49 1.46 143.57
  C 2.22 140.68 1.60 137.83 2.48 134.97
  Q 3.20 132.63 3.00 130.27
  Q 2.95 129.73 3.23 129.26
  Q 3.91 128.09 3.98 126.63
  Q 4.04 125.33 4.38 123.92
  Q 6.44 115.30 8.98 107.21
  Q 9.27 106.26 9.69 105.42
  Q 10.00 104.77 10.03 104.01
  A 1.82 1.74 62.9 0 1 10.31 103.08
  Q 11.15 101.78 11.58 100.40
  Q 12.25 98.27 12.55 97.63
  Q 14.22 94.09 15.86 90.34
  Q 16.36 89.20 16.70 87.97
  Q 17.07 86.60 17.82 85.26
  Q 23.91 74.35 31.91 63.58
  Q 41.46 50.72 51.52 41.68
  Q 53.82 39.61 56.31 37.78
  Q 57.95 36.57 59.42 35.08
  Q 60.67 33.80 62.55 32.44
  Q 70.43 26.74 78.32 22.03
  Q 84.02 18.62 89.93 16.16
  Q 93.77 14.56 97.98 12.72
  Q 101.97 10.97 106.15 9.61
  Q 118.84 5.46 127.25 3.97
  Q 129.95 3.49 131.03 3.13
  Q 131.50 2.97 131.99 2.99
  Q 134.41 3.11 136.50 2.42
  C 139.06 1.58 141.87 2.12 144.52 1.50
  Q 146.74 0.98 149.05 0.99
  Q 155.73 1.03 162.50 0.97
  Q 164.99 0.94 167.59 1.51
  Q 170.22 2.08 173.07 1.98
  Q 174.96 1.91 176.88 2.51
  Q 179.06 3.19 181.47 2.98
  Q 182.03 2.93 182.51 3.20
  Q 184.11 4.09 185.93 4.01
  Q 186.48 3.99 186.99 4.21
  Q 188.88 5.04 190.95 5.02
  Q 191.50 5.02 191.97 5.29
  C 193.27 6.04 194.61 5.89 196.02 6.29
  Q 211.04 10.60 216.84 13.41
  Q 221.77 15.79 226.76 18.02
  Q 229.95 19.45 233.04 21.29
  Q 236.08 23.09 238.99 24.88
  Q 247.00 29.80 257.27 38.46
  C 257.83 38.94 258.40 38.90 259.00 39.46
  Q 266.37 46.26 271.81 52.64
  Q 274.38 55.64 277.01 58.59
  Q 279.00 60.82 280.76 63.17
  Q 282.49 65.46 284.20 67.89
  Q 286.41 71.02 288.28 74.42
  Q 290.05 77.61 291.89 80.71
  Q 296.98 89.26 301.48 100.80
  Q 308.01 117.53 309.98 135.27
  Q 310.21 137.31 310.52 139.44
  Q 310.93 142.19 310.98 143.63
  Q 311.51 158.77 310.84 170.74
  Q 310.54 176.15 308.74 186.49
  Q 307.22 195.30 305.06 202.06
  Q 300.98 214.88 295.59 224.91
  Q 293.80 228.23 291.82 231.76
  Q 290.51 234.10 289.15 236.28
  C 287.91 238.27 286.99 240.60 285.70 242.42
  Q 271.19 262.88 254.15 276.66
  Q 244.79 284.24 232.13 291.01
  Q 222.28 296.28 214.39 299.52
  C 201.67 304.75 188.38 308.20 174.90 309.26
  Q 170.81 309.58 166.72 310.00
  Z
  M 82.58 273.15
  Q 83.22 274.34 84.20 274.83
  Q 85.55 275.49 85.67 275.57
  C 87.62 276.86 89.79 277.32 91.80 278.44
  Q 96.75 281.19 102.00 282.79
  C 103.93 283.38 105.57 284.33 107.46 284.94
  Q 118.92 288.65 132.39 291.08
  Q 142.66 292.93 153.94 292.87
  C 158.02 292.85 161.61 291.72 165.55 291.37
  Q 174.21 290.58 182.05 289.80
  Q 185.48 289.45 188.91 288.52
  C 195.54 286.71 202.46 285.20 208.63 282.38
  Q 214.73 279.59 220.67 277.33
  C 222.27 276.72 223.44 275.72 224.94 274.92
  Q 235.36 269.41 245.13 261.94
  Q 245.99 261.29 247.28 259.92
  Q 248.36 258.77 249.50 257.96
  Q 260.30 248.88 264.61 242.61
  C 270.41 234.18 276.38 225.78 280.86 216.77
  Q 284.64 209.17 286.67 202.76
  Q 288.88 195.74 290.77 188.22
  C 295.47 169.45 295.54 149.16 291.92 130.29
  C 290.87 124.82 289.24 119.92 287.96 114.71
  C 285.60 105.10 281.40 96.41 276.55 87.79
  C 273.50 82.36 269.50 77.52 266.12 72.27
  C 263.32 67.91 259.14 63.27 255.30 59.83
  C 249.98 55.05 244.77 50.04 239.05 45.69
  C 233.10 41.17 226.84 37.57 220.28 34.06
  C 212.55 29.93 203.59 26.05 195.11 23.52
  Q 151.69 10.60 109.04 26.38
  Q 102.95 28.64 94.94 32.69
  Q 84.90 37.78 81.55 40.04
  Q 57.59 56.19 41.13 79.77
  Q 38.99 82.84 37.37 85.98
  C 34.55 91.49 31.55 96.72 29.13 102.50
  C 14.69 136.92 14.11 176.24 29.28 210.64
  C 35.75 225.31 43.75 238.43 54.21 249.23
  C 61.17 256.42 67.65 262.97 76.28 268.52
  C 78.39 269.88 80.37 271.67 82.58 273.15
  Z"
/>
<path fill="#fbf5ec" d="
  M 249.50 257.96
  C 244.61 251.94 238.80 245.92 234.78 240.13
  Q 229.08 231.92 225.81 224.74
  Q 221.79 215.91 215.04 196.25
  Q 213.92 192.98 211.81 191.20
  Q 211.17 190.66 212.00 190.57
  C 218.34 189.84 225.95 186.07 229.41 180.40
  Q 233.15 174.27 233.76 167.49
  A 2.05 2.03 73.3 0 1 234.51 166.09
  Q 243.11 159.12 245.28 147.77
  Q 247.10 138.23 246.17 127.54
  C 245.30 117.67 241.74 109.90 235.99 102.19
  Q 235.73 101.84 235.72 101.41
  Q 235.41 89.02 230.29 79.35
  C 226.64 72.45 222.07 64.88 215.73 60.19
  Q 211.96 57.40 207.43 54.49
  C 197.51 48.13 185.90 45.56 173.95 46.29
  Q 173.26 46.34 172.69 45.95
  C 165.88 41.35 159.63 38.79 151.49 38.35
  C 138.28 37.63 126.53 39.07 115.84 47.05
  C 106.23 54.23 100.73 65.19 104.61 77.32
  Q 104.82 77.95 104.33 78.41
  Q 101.69 80.88 100.29 83.81
  Q 96.49 91.80 95.25 99.33
  Q 94.93 101.32 93.94 103.14
  C 90.49 109.48 88.25 115.68 92.66 121.63
  C 93.76 123.12 93.69 125.12 92.71 126.62
  Q 87.72 134.19 81.18 142.64
  Q 80.31 143.76 79.72 144.96
  C 78.72 146.97 77.17 148.65 76.65 150.80
  C 75.73 154.62 78.75 158.03 82.56 158.85
  Q 84.56 159.28 86.39 160.33
  A 1.40 1.39 -55.1 0 1 86.76 162.45
  Q 81.69 168.41 84.98 175.40
  C 86.17 177.93 89.17 178.99 89.75 181.87
  Q 90.38 185.03 88.35 187.55
  C 85.41 191.20 81.71 194.28 79.28 198.33
  C 76.43 203.07 74.29 207.09 73.45 212.80
  Q 71.80 224.11 76.92 231.56
  Q 80.69 237.04 85.61 238.85
  C 96.21 242.74 108.26 239.69 118.55 235.16
  Q 120.94 234.11 119.16 236.01
  Q 112.67 242.97 106.90 248.18
  Q 103.57 251.18 97.49 258.24
  Q 92.48 264.06 82.58 273.15
  C 80.37 271.67 78.39 269.88 76.28 268.52
  C 67.65 262.97 61.17 256.42 54.21 249.23
  C 43.75 238.43 35.75 225.31 29.28 210.64
  C 14.11 176.24 14.69 136.92 29.13 102.50
  C 31.55 96.72 34.55 91.49 37.37 85.98
  Q 38.99 82.84 41.13 79.77
  Q 57.59 56.19 81.55 40.04
  Q 84.90 37.78 94.94 32.69
  Q 102.95 28.64 109.04 26.38
  Q 151.69 10.60 195.11 23.52
  C 203.59 26.05 212.55 29.93 220.28 34.06
  C 226.84 37.57 233.10 41.17 239.05 45.69
  C 244.77 50.04 249.98 55.05 255.30 59.83
  C 259.14 63.27 263.32 67.91 266.12 72.27
  C 269.50 77.52 273.50 82.36 276.55 87.79
  C 281.40 96.41 285.60 105.10 287.96 114.71
  C 289.24 119.92 290.87 124.82 291.92 130.29
  C 295.54 149.16 295.47 169.45 290.77 188.22
  Q 288.88 195.74 286.67 202.76
  Q 284.64 209.17 280.86 216.77
  C 276.38 225.78 270.41 234.18 264.61 242.61
  Q 260.30 248.88 249.50 257.96
  Z
  M 45.64 148.20
  Q 38.78 157.75 37.01 169.69
  Q 36.93 170.22 37.47 170.23
  L 42.58 170.31
  Q 43.08 170.31 43.19 169.82
  Q 46.55 154.50 56.56 142.01
  Q 57.07 141.39 56.26 141.38
  L 33.23 141.28
  Q 33.00 141.28 32.99 141.52
  L 32.95 147.05
  Q 32.95 147.20 33.10 147.20
  L 45.28 147.46
  Q 46.16 147.48 45.64 148.20
  Z
  M 269.70 164.50
  L 269.70 169.96
  Q 269.70 170.22 269.96 170.22
  L 275.56 170.21
  Q 275.83 170.21 275.83 169.94
  L 275.98 164.28
  Q 275.99 163.52 276.74 163.68
  Q 277.45 163.83 278.14 163.63
  Q 278.69 163.48 278.71 162.90
  L 278.87 159.40
  Q 278.90 158.65 278.15 158.69
  L 276.62 158.77
  Q 275.94 158.81 275.93 158.12
  L 275.78 142.04
  Q 275.77 141.30 275.04 141.32
  L 269.56 141.48
  A 2.13 2.11 17.3 0 0 267.92 142.33
  Q 261.59 150.82 254.29 159.14
  Q 253.96 159.51 254.01 160.01
  L 254.31 163.00
  Q 254.37 163.63 255.01 163.64
  L 268.99 163.78
  Q 269.70 163.79 269.70 164.50
  Z"
/>
<path fill="#222627" d="
  M 249.50 257.96
  Q 248.36 258.77 247.28 259.92
  Q 245.99 261.29 245.13 261.94
  Q 235.36 269.41 224.94 274.92
  C 223.44 275.72 222.27 276.72 220.67 277.33
  Q 214.73 279.59 208.63 282.38
  C 202.46 285.20 195.54 286.71 188.91 288.52
  Q 185.48 289.45 182.05 289.80
  Q 174.21 290.58 165.55 291.37
  C 161.61 291.72 158.02 292.85 153.94 292.87
  Q 142.66 292.93 132.39 291.08
  Q 118.92 288.65 107.46 284.94
  C 105.57 284.33 103.93 283.38 102.00 282.79
  Q 96.75 281.19 91.80 278.44
  C 89.79 277.32 87.62 276.86 85.67 275.57
  Q 85.55 275.49 84.20 274.83
  Q 83.22 274.34 82.58 273.15
  Q 92.48 264.06 97.49 258.24
  Q 103.57 251.18 106.90 248.18
  Q 112.67 242.97 119.16 236.01
  Q 120.94 234.11 118.55 235.16
  C 108.26 239.69 96.21 242.74 85.61 238.85
  Q 80.69 237.04 76.92 231.56
  Q 71.80 224.11 73.45 212.80
  C 74.29 207.09 76.43 203.07 79.28 198.33
  C 81.71 194.28 85.41 191.20 88.35 187.55
  Q 90.38 185.03 89.75 181.87
  C 89.17 178.99 86.17 177.93 84.98 175.40
  Q 81.69 168.41 86.76 162.45
  A 1.40 1.39 -55.1 0 0 86.39 160.33
  Q 84.56 159.28 82.56 158.85
  C 78.75 158.03 75.73 154.62 76.65 150.80
  C 77.17 148.65 78.72 146.97 79.72 144.96
  Q 80.31 143.76 81.18 142.64
  Q 87.72 134.19 92.71 126.62
  C 93.69 125.12 93.76 123.12 92.66 121.63
  C 88.25 115.68 90.49 109.48 93.94 103.14
  Q 94.93 101.32 95.25 99.33
  Q 96.49 91.80 100.29 83.81
  Q 101.69 80.88 104.33 78.41
  Q 104.82 77.95 104.61 77.32
  C 100.73 65.19 106.23 54.23 115.84 47.05
  C 126.53 39.07 138.28 37.63 151.49 38.35
  C 159.63 38.79 165.88 41.35 172.69 45.95
  Q 173.26 46.34 173.95 46.29
  C 185.90 45.56 197.51 48.13 207.43 54.49
  Q 211.96 57.40 215.73 60.19
  C 222.07 64.88 226.64 72.45 230.29 79.35
  Q 235.41 89.02 235.72 101.41
  Q 235.73 101.84 235.99 102.19
  C 241.74 109.90 245.30 117.67 246.17 127.54
  Q 247.10 138.23 245.28 147.77
  Q 243.11 159.12 234.51 166.09
  A 2.05 2.03 73.3 0 0 233.76 167.49
  Q 233.15 174.27 229.41 180.40
  C 225.95 186.07 218.34 189.84 212.00 190.57
  Q 211.17 190.66 211.81 191.20
  Q 213.92 192.98 215.04 196.25
  Q 221.79 215.91 225.81 224.74
  Q 229.08 231.92 234.78 240.13
  C 238.80 245.92 244.61 251.94 249.50 257.96
  Z
  M 194.21 75.10
  Q 200.78 81.29 210.09 84.91
  Q 210.79 85.19 210.25 84.66
  C 208.12 82.56 205.64 80.79 203.64 78.52
  Q 196.37 70.23 186.06 63.04
  Q 182.22 60.36 177.95 58.51
  C 167.34 53.91 158.09 50.73 146.12 52.15
  Q 134.95 53.48 126.27 62.17
  Q 125.06 63.38 126.67 62.79
  C 138.04 58.57 146.60 65.74 150.64 75.81
  Q 154.62 85.74 161.46 91.85
  Q 162.28 92.58 161.23 92.27
  Q 152.12 89.62 148.33 81.90
  Q 147.83 80.88 148.08 81.99
  Q 150.30 92.06 156.00 98.29
  Q 158.28 100.77 155.19 99.42
  Q 149.17 96.77 147.31 89.89
  Q 147.29 89.83 147.23 89.85
  L 146.98 89.91
  Q 146.77 89.97 146.81 90.18
  Q 150.21 108.21 166.40 116.31
  Q 167.73 116.97 166.24 116.98
  Q 162.20 117.01 158.40 113.98
  Q 157.80 113.50 158.07 114.22
  C 161.01 122.09 168.32 128.53 176.09 132.22
  Q 177.87 133.06 179.55 133.90
  Q 180.53 134.39 179.44 134.40
  Q 169.50 134.48 161.89 127.52
  Q 160.74 126.47 159.58 125.47
  Q 158.33 124.39 159.23 125.78
  C 161.07 128.60 162.91 131.87 165.27 134.13
  C 169.93 138.59 176.07 142.16 182.77 142.64
  C 191.20 143.24 200.08 143.01 206.84 137.78
  A 0.19 0.18 -58.8 0 0 206.76 137.45
  Q 195.07 135.43 186.49 129.35
  C 183.90 127.52 181.91 124.99 179.69 122.67
  C 176.44 119.30 173.73 114.49 172.60 110.06
  Q 172.10 108.13 173.43 109.62
  C 179.50 116.49 187.86 119.26 196.76 120.36
  Q 196.89 120.38 196.92 120.25
  L 196.92 120.24
  Q 196.95 120.09 196.81 120.05
  C 190.24 118.13 185.45 114.39 181.87 108.42
  C 179.97 105.25 176.66 100.00 176.39 96.39
  Q 176.26 94.70 177.18 96.13
  C 177.94 97.31 178.49 98.80 179.48 99.79
  C 182.24 102.51 184.30 105.55 187.35 107.99
  C 197.41 116.05 210.88 118.91 223.10 115.11
  Q 225.81 114.26 222.98 114.17
  Q 210.20 113.78 200.07 106.96
  C 194.94 103.51 189.91 99.33 186.46 94.09
  C 183.14 89.04 181.28 81.58 181.01 75.61
  Q 180.86 72.06 182.22 75.34
  C 183.01 77.24 183.34 79.41 184.46 81.17
  Q 190.84 91.12 200.17 97.16
  C 206.37 101.17 214.53 102.76 221.87 104.54
  Q 223.92 105.04 222.02 104.12
  C 218.29 102.32 214.34 100.56 211.05 98.03
  Q 208.42 95.99 206.26 93.57
  Q 200.05 86.61 195.33 78.58
  Q 194.41 77.01 193.84 75.33
  Q 193.56 74.49 194.21 75.10
  Z
  M 110.93 158.02
  C 121.93 162.38 133.67 155.65 140.26 146.82
  Q 143.73 142.16 146.20 136.21
  A 1.02 1.01 -57.1 0 0 145.96 135.08
  Q 143.21 132.52 141.43 128.85
  Q 136.48 118.64 137.88 106.27
  C 138.71 99.01 141.09 90.53 139.88 83.27
  Q 138.14 72.84 128.91 71.50
  C 121.56 70.44 115.14 73.94 109.90 79.00
  C 104.03 84.65 100.92 92.09 99.77 100.20
  C 98.90 106.34 94.09 110.20 95.82 116.99
  Q 95.97 117.57 96.56 117.45
  Q 104.15 115.92 111.36 119.08
  C 114.53 120.47 118.00 121.90 120.57 124.26
  Q 124.04 127.45 127.56 130.58
  Q 128.33 131.27 127.61 132.01
  Q 126.01 133.65 124.13 134.36
  A 1.42 1.38 47.9 0 1 122.99 134.29
  C 118.62 132.04 115.17 130.02 110.36 133.13
  A 0.67 0.66 52.6 0 0 110.23 134.13
  Q 112.64 136.87 116.27 137.27
  Q 116.45 137.29 116.57 137.42
  Q 116.68 137.54 116.67 137.70
  Q 116.65 138.15 116.21 138.26
  Q 111.06 139.48 105.71 138.89
  Q 105.01 138.81 105.29 139.46
  Q 105.82 140.74 105.80 142.21
  Q 105.79 142.81 105.25 142.55
  C 101.23 140.64 98.17 135.92 95.89 132.21
  Q 95.41 131.43 94.88 132.18
  Q 89.94 139.15 85.25 145.38
  Q 83.81 147.29 82.50 149.32
  C 80.93 151.72 82.84 154.19 85.51 153.19
  Q 89.36 151.75 93.18 153.79
  A 1.27 1.26 -76.8 0 0 95.04 152.63
  Q 94.99 150.96 93.70 149.85
  Q 92.78 149.05 93.99 149.24
  C 100.09 150.21 103.56 155.96 98.84 161.08
  Q 98.32 161.64 99.00 161.97
  C 101.27 163.07 103.56 164.04 105.43 165.79
  Q 111.44 171.41 114.09 178.78
  Q 114.28 179.32 114.80 179.11
  Q 119.03 177.44 122.95 174.52
  Q 123.41 174.18 123.01 173.76
  Q 118.04 168.61 113.11 162.60
  Q 111.59 160.75 110.40 158.62
  Q 109.82 157.58 110.93 158.02
  Z
  M 198.32 195.87
  Q 198.59 195.75 198.46 195.48
  L 196.58 191.40
  A 0.54 0.53 -18.6 0 0 195.98 191.11
  C 187.59 192.92 180.15 196.31 172.60 200.20
  Q 156.98 208.23 144.69 221.30
  C 137.20 229.26 131.57 238.85 126.59 248.73
  A 0.07 0.07 0.0 0 0 126.69 248.81
  Q 135.08 241.98 143.18 233.95
  Q 147.27 229.90 155.60 223.69
  Q 160.27 220.22 165.28 216.15
  C 172.10 210.61 180.27 205.68 188.18 201.06
  Q 192.89 198.31 198.32 195.87
  Z"
/>
<path fill="#fbf5ec" d="
  M 193.84 75.33
  Q 194.41 77.01 195.33 78.58
  Q 200.05 86.61 206.26 93.57
  Q 208.42 95.99 211.05 98.03
  C 214.34 100.56 218.29 102.32 222.02 104.12
  Q 223.92 105.04 221.87 104.54
  C 214.53 102.76 206.37 101.17 200.17 97.16
  Q 190.84 91.12 184.46 81.17
  C 183.34 79.41 183.01 77.24 182.22 75.34
  Q 180.86 72.06 181.01 75.61
  C 181.28 81.58 183.14 89.04 186.46 94.09
  C 189.91 99.33 194.94 103.51 200.07 106.96
  Q 210.20 113.78 222.98 114.17
  Q 225.81 114.26 223.10 115.11
  C 210.88 118.91 197.41 116.05 187.35 107.99
  C 184.30 105.55 182.24 102.51 179.48 99.79
  C 178.49 98.80 177.94 97.31 177.18 96.13
  Q 176.26 94.70 176.39 96.39
  C 176.66 100.00 179.97 105.25 181.87 108.42
  C 185.45 114.39 190.24 118.13 196.81 120.05
  Q 196.95 120.09 196.92 120.24
  L 196.92 120.25
  Q 196.89 120.38 196.76 120.36
  C 187.86 119.26 179.50 116.49 173.43 109.62
  Q 172.10 108.13 172.60 110.06
  C 173.73 114.49 176.44 119.30 179.69 122.67
  C 181.91 124.99 183.90 127.52 186.49 129.35
  Q 195.07 135.43 206.76 137.45
  A 0.19 0.18 -58.8 0 1 206.84 137.78
  C 200.08 143.01 191.20 143.24 182.77 142.64
  C 176.07 142.16 169.93 138.59 165.27 134.13
  C 162.91 131.87 161.07 128.60 159.23 125.78
  Q 158.33 124.39 159.58 125.47
  Q 160.74 126.47 161.89 127.52
  Q 169.50 134.48 179.44 134.40
  Q 180.53 134.39 179.55 133.90
  Q 177.87 133.06 176.09 132.22
  C 168.32 128.53 161.01 122.09 158.07 114.22
  Q 157.80 113.50 158.40 113.98
  Q 162.20 117.01 166.24 116.98
  Q 167.73 116.97 166.40 116.31
  Q 150.21 108.21 146.81 90.18
  Q 146.77 89.97 146.98 89.91
  L 147.23 89.85
  Q 147.29 89.83 147.31 89.89
  Q 149.17 96.77 155.19 99.42
  Q 158.28 100.77 156.00 98.29
  Q 150.30 92.06 148.08 81.99
  Q 147.83 80.88 148.33 81.90
  Q 152.12 89.62 161.23 92.27
  Q 162.28 92.58 161.46 91.85
  Q 154.62 85.74 150.64 75.81
  C 146.60 65.74 138.04 58.57 126.67 62.79
  Q 125.06 63.38 126.27 62.17
  Q 134.95 53.48 146.12 52.15
  C 158.09 50.73 167.34 53.91 177.95 58.51
  Q 182.22 60.36 186.06 63.04
  Q 196.37 70.23 203.64 78.52
  C 205.64 80.79 208.12 82.56 210.25 84.66
  Q 210.79 85.19 210.09 84.91
  Q 200.78 81.29 194.21 75.10
  Q 193.56 74.49 193.84 75.33
  Z"
/>
<path fill="#fbf5ec" d="
  M 110.93 158.02
  Q 109.82 157.58 110.40 158.62
  Q 111.59 160.75 113.11 162.60
  Q 118.04 168.61 123.01 173.76
  Q 123.41 174.18 122.95 174.52
  Q 119.03 177.44 114.80 179.11
  Q 114.28 179.32 114.09 178.78
  Q 111.44 171.41 105.43 165.79
  C 103.56 164.04 101.27 163.07 99.00 161.97
  Q 98.32 161.64 98.84 161.08
  C 103.56 155.96 100.09 150.21 93.99 149.24
  Q 92.78 149.05 93.70 149.85
  Q 94.99 150.96 95.04 152.63
  A 1.27 1.26 -76.8 0 1 93.18 153.79
  Q 89.36 151.75 85.51 153.19
  C 82.84 154.19 80.93 151.72 82.50 149.32
  Q 83.81 147.29 85.25 145.38
  Q 89.94 139.15 94.88 132.18
  Q 95.41 131.43 95.89 132.21
  C 98.17 135.92 101.23 140.64 105.25 142.55
  Q 105.79 142.81 105.80 142.21
  Q 105.82 140.74 105.29 139.46
  Q 105.01 138.81 105.71 138.89
  Q 111.06 139.48 116.21 138.26
  Q 116.65 138.15 116.67 137.70
  Q 116.68 137.54 116.57 137.42
  Q 116.45 137.29 116.27 137.27
  Q 112.64 136.87 110.23 134.13
  A 0.67 0.66 52.6 0 1 110.36 133.13
  C 115.17 130.02 118.62 132.04 122.99 134.29
  A 1.42 1.38 47.9 0 0 124.13 134.36
  Q 126.01 133.65 127.61 132.01
  Q 128.33 131.27 127.56 130.58
  Q 124.04 127.45 120.57 124.26
  C 118.00 121.90 114.53 120.47 111.36 119.08
  Q 104.15 115.92 96.56 117.45
  Q 95.97 117.57 95.82 116.99
  C 94.09 110.20 98.90 106.34 99.77 100.20
  C 100.92 92.09 104.03 84.65 109.90 79.00
  C 115.14 73.94 121.56 70.44 128.91 71.50
  Q 138.14 72.84 139.88 83.27
  C 141.09 90.53 138.71 99.01 137.88 106.27
  Q 136.48 118.64 141.43 128.85
  Q 143.21 132.52 145.96 135.08
  A 1.02 1.01 -57.1 0 1 146.20 136.21
  Q 143.73 142.16 140.26 146.82
  C 133.67 155.65 121.93 162.38 110.93 158.02
  Z"
/>
<path fill="#262b2e" d="
  M 45.28 147.46
  L 33.10 147.20
  Q 32.95 147.20 32.95 147.05
  L 32.99 141.52
  Q 33.00 141.28 33.23 141.28
  L 56.26 141.38
  Q 57.07 141.39 56.56 142.01
  Q 46.55 154.50 43.19 169.82
  Q 43.08 170.31 42.58 170.31
  L 37.47 170.23
  Q 36.93 170.22 37.01 169.69
  Q 38.78 157.75 45.64 148.20
  Q 46.16 147.48 45.28 147.46
  Z"
/>
<path fill="#262b2e" d="
  M 268.99 163.78
  L 255.01 163.64
  Q 254.37 163.63 254.31 163.00
  L 254.01 160.01
  Q 253.96 159.51 254.29 159.14
  Q 261.59 150.82 267.92 142.33
  A 2.13 2.11 17.3 0 1 269.56 141.48
  L 275.04 141.32
  Q 275.77 141.30 275.78 142.04
  L 275.93 158.12
  Q 275.94 158.81 276.62 158.77
  L 278.15 158.69
  Q 278.90 158.65 278.87 159.40
  L 278.71 162.90
  Q 278.69 163.48 278.14 163.63
  Q 277.45 163.83 276.74 163.68
  Q 275.99 163.52 275.98 164.28
  L 275.83 169.94
  Q 275.83 170.21 275.56 170.21
  L 269.96 170.22
  Q 269.70 170.22 269.70 169.96
  L 269.70 164.50
  Q 269.70 163.79 268.99 163.78
  Z
  M 262.70 158.06
  A 0.31 0.31 0.0 0 0 262.95 158.56
  L 269.17 158.54
  A 0.31 0.31 0.0 0 0 269.48 158.23
  L 269.53 149.97
  A 0.31 0.31 0.0 0 0 268.98 149.78
  L 262.70 158.06
  Z"
/>
<path fill="#fbf5ec" d="
  M 262.70 158.06
  L 268.98 149.78
  A 0.31 0.31 0.0 0 1 269.53 149.97
  L 269.48 158.23
  A 0.31 0.31 0.0 0 1 269.17 158.54
  L 262.95 158.56
  A 0.31 0.31 0.0 0 1 262.70 158.06
  Z"
/>
<path fill="#fbf5ec" d="
  M 198.32 195.87
  Q 192.89 198.31 188.18 201.06
  C 180.27 205.68 172.10 210.61 165.28 216.15
  Q 160.27 220.22 155.60 223.69
  Q 147.27 229.90 143.18 233.95
  Q 135.08 241.98 126.69 248.81
  A 0.07 0.07 0.0 0 1 126.59 248.73
  C 131.57 238.85 137.20 229.26 144.69 221.30
  Q 156.98 208.23 172.60 200.20
  C 180.15 196.31 187.59 192.92 195.98 191.11
  A 0.54 0.53 -18.6 0 1 196.58 191.40
  L 198.46 195.48
  Q 198.59 195.75 198.32 195.87
  Z"
/>
</svg>
